<?xml version="1.0" standalone="no"?>
<!DOCTYPE svg PUBLIC "-//W3C//DTD SVG 20010904//EN"
 "http://www.w3.org/TR/2001/REC-SVG-20010904/DTD/svg10.dtd">
<svg version="1.0" xmlns="http://www.w3.org/2000/svg"
 width="1254.000000pt" height="1254.000000pt" viewBox="0 0 1254.000000 1254.000000"
 preserveAspectRatio="xMidYMid meet">

<g transform="translate(0.000000,1254.000000) scale(0.100000,-0.100000)"
fill="#000000" stroke="none">
<path d="M2881 8619 c-180 -35 -366 -148 -481 -292 -62 -78 -123 -198 -152
-302 l-23 -80 -3 -1788 c-2 -1557 -1 -1788 12 -1793 8 -3 106 -2 219 3 l204 8
75 38 c88 43 152 107 195 195 l28 57 5 1502 5 1502 21 28 c11 15 38 34 60 42
35 12 44 12 81 -5 44 -20 18 13 813 -999 406 -517 1163 -1478 1464 -1860 169
-214 325 -407 347 -427 62 -57 136 -80 239 -76 73 3 96 8 155 37 138 68 242
212 265 366 7 47 10 691 8 1942 l-3 1871 -279 -152 c-293 -160 -349 -198 -392
-273 -63 -106 -59 -24 -64 -1243 l-5 -1114 -387 489 c-213 270 -559 708 -769
975 -661 839 -874 1101 -946 1162 -151 128 -347 199 -542 197 -58 -1 -126 -5
-150 -10z"/>
<path d="M8385 8553 c-429 -35 -799 -214 -1090 -526 -218 -234 -357 -500 -427
-817 -23 -104 -23 -111 -23 -800 0 -638 2 -702 18 -780 31 -139 84 -291 142
-405 222 -432 614 -733 1093 -838 95 -20 120 -21 1161 -24 l1064 -4 -5 143
c-8 203 -44 301 -152 416 -54 58 -104 91 -189 125 -51 22 -62 22 -857 27 -784
6 -807 6 -881 27 -333 93 -552 310 -646 638 -15 53 -17 128 -21 605 -4 601 1
691 48 832 105 315 332 537 647 635 l88 27 780 6 c601 5 789 9 820 19 162 53
276 166 331 326 23 69 28 101 32 228 l4 147 -948 -2 c-522 -1 -967 -3 -989 -5z"/>
<path d="M3516 6643 c-12 -217 -9 -369 8 -421 10 -31 57 -99 129 -192 62 -80
310 -399 551 -708 545 -703 736 -945 750 -954 13 -9 436 -6 436 3 0 4 -53 73
-117 155 -64 82 -306 392 -537 689 -466 599 -1177 1506 -1206 1538 -4 4 -10
-45 -14 -110z"/>
</g>
</svg>
